Coordinates
version=1
nRows=12
nColumns=42
inDegrees=yes

Units are S.I. units (second, meters, Newtons, ...)
If the header above contains a line with 'inDegrees', this indicates whether rotational values are in degrees (yes) or radians (no).

endheader
time	pelvis_tilt	pelvis_list	pelvis_rotation	pelvis_tx	pelvis_ty	pelvis_tz	hip_flexion_r	hip_adduction_r	hip_rotation_r	knee_angle_r	knee_adduction_r	knee_angle_r_beta	ankle_angle_r	subtalar_angle_r	mtp_angle_r	hip_flexion_l	hip_adduction_l	hip_rotation_l	knee_angle_l	knee_adduction_l	knee_angle_l_beta	ankle_angle_l	subtalar_angle_l	mtp_angle_l	lumbar_extension	lumbar_bending	lumbar_rotation	arm_flex_r	arm_add_r	arm_rot_r	elbow_flex_r	pro_sup_r	wrist_flex_r	wrist_dev_r	arm_flex_l	arm_add_l	arm_rot_l	elbow_flex_l	pro_sup_l	wrist_flex_l	wrist_dev_l
      0.40000000	      9.44852961	      3.55327503	     -2.31165541	     -1.55570389	      0.90133391	      0.17031220	      1.01672024	     -7.14236086	      0.32950654	     65.77758683	      6.45640954	      1.14803546	     -0.76144890	    -11.45052776	     -9.69865389	      4.23449833	      9.82903412	    -17.66306380	     26.00498377	     -4.41933148	      0.45387259	     19.19155845	     18.51791715	     -9.69865389	    -21.89609866	     -2.70863394	     -1.18555528	      4.17521356	     -8.29510380	    -15.06725643	     29.62022258	     90.00000001	      0.00000000	      0.00000000	     -3.95945585	     -6.44410984	    -27.31785572	     37.60288892	     90.00000001	      0.00000000	      0.00000000
      0.41000000	      9.55054302	      3.36978200	     -2.43092674	     -1.54845698	      0.90213364	      0.17038504	      2.87445872	     -6.69425434	      0.36714740	     66.94443700	      5.62345849	      1.16840084	      0.80173723	    -12.68667526	     -9.66575374	      3.25167683	      9.62680723	    -17.62180584	     25.50261987	     -4.20379009	      0.44510468	     19.58882499	     18.69777871	     -9.66575374	    -22.15497261	     -2.50727603	     -1.30142015	      4.03850258	     -8.46270706	    -15.16881995	     29.33622495	     90.00000001	      0.00000000	      0.00000000	     -3.62665520	     -6.61738701	    -26.87343622	     37.79044522	     90.00000001	      0.00000000	      0.00000000
      0.42000000	      9.65162744	      3.17726312	     -2.44842087	     -1.54139256	      0.90294923	      0.17019225	      4.67661139	     -6.28831107	      0.48156140	     67.80452755	      5.05771476	      1.18341225	      2.07640340	    -13.67284918	     -9.63751200	      2.30850615	      9.45569242	    -17.43572387	     25.04719832	     -4.04491604	      0.43715608	     19.86443743	     18.86218268	     -9.63751200	    -22.46039339	     -2.23976267	     -1.55709747	      3.95922836	     -8.61202209	    -15.36792817	     29.16938561	     90.00000001	      0.00000000	      0.00000000	     -3.32572353	     -6.73765400	    -26.45841040	     37.98383621	     90.00000001	      0.00000000	      0.00000000
      0.43000000	      9.66442086	      3.15991017	     -2.48715422	     -1.53435613	      0.90355230	      0.17011807	      6.53375946	     -6.12027915	      1.14877559	     68.41653221	      5.14942373	      1.19409375	      2.92573220	    -15.66811535	     -9.56723869	      1.38777948	      9.53200041	    -17.12766431	     24.37486942	     -3.87394571	      0.42542173	     20.19462783	     19.24211699	     -9.56723869	    -22.62229619	     -2.19859911	     -1.76197751	      3.89901070	     -8.55549925	    -16.43348697	     28.86986987	     90.00000001	      0.00000000	      0.00000000	     -3.07449262	     -7.13061864	    -25.20010336	     38.22875468	     90.00000001	      0.00000000	      0.00000000
      0.44000000	      9.68392731	      2.90503989	     -2.45532692	     -1.52733827	      0.90423084	      0.17002295	      8.23372543	     -5.54805543	      1.30776952	     68.54828489	      4.70166232	      1.19639327	      3.93551662	    -16.10944231	     -9.53864350	      0.56711062	      9.26337226	    -16.86823259	     23.97308451	     -3.67626717	      0.41840926	     20.41833567	     19.22040904	     -9.53864350	    -22.81535470	     -1.86064399	     -1.98686857	      3.73828361	     -8.68587417	    -16.65537235	     28.77751341	     90.00000001	      0.00000000	      0.00000000	     -2.71881101	     -7.24402802	    -24.93702273	     38.38008518	     90.00000001	      0.00000000	      0.00000000
      0.45000000	      9.77416707	      2.74516478	     -2.34052134	     -1.52039026	      0.90506692	      0.16983593	      9.71243922	     -5.19288961	      1.61473745	     68.30428571	      4.66378759	      1.19213468	      4.60493040	    -16.86231226	     -9.40862012	     -0.41115908	      9.14732526	    -16.20930057	     23.41384571	     -3.38912820	      0.40864870	     20.62777769	     18.96907052	     -9.40862012	    -23.09422654	     -1.61356218	     -2.26098423	      3.71956231	     -8.58798456	    -18.08737524	     28.59391603	     90.00000001	      0.00000000	      0.00000000	     -2.37733688	     -7.57070712	    -23.89936264	     38.49243090	     90.00000001	      0.00000000	      0.00000000
      0.46000000	      9.72585747	      2.50833613	     -2.15568896	     -1.51347414	      0.90557680	      0.16948146	     11.24841399	     -4.74392984	      1.69140788	     67.75957649	      4.47003973	      1.18262771	      5.30354584	    -16.91288411	     -9.38081113	     -1.06268970	      8.96333028	    -15.82260333	     23.09590909	     -3.35490017	      0.40309966	     20.85723640	     18.95372934	     -9.38081113	    -23.21095679	     -1.24496092	     -2.61150818	      3.52074727	     -8.70528105	    -18.20077167	     28.59031243	     90.00000001	      0.00000000	      0.00000000	     -2.01399908	     -7.69276673	    -23.65814572	     38.60941413	     90.00000001	      0.00000000	      0.00000000
      0.47000000	      9.84649713	      2.22913707	     -1.87989165	     -1.50651337	      0.90646047	      0.16909753	     12.37557717	     -4.30738115	      1.69464706	     66.73439764	      4.41913828	      1.16473496	      5.81624800	    -17.03960053	     -9.32943863	     -2.00937969	      8.69373905	    -15.12403579	     22.64014258	     -3.13103336	      0.39514503	     21.20999248	     18.89968711	     -9.32943863	    -23.52208062	     -0.81261528	     -2.99362129	      3.34799450	     -8.77922485	    -18.66464671	     28.59516367	     90.00000001	      0.00000000	      0.00000000	     -1.61652810	     -7.92907314	    -22.96972527	     38.63019931	     90.00000001	      0.00000000	      0.00000000
      0.48000000	      9.75392106	      1.99710497	     -1.59795617	     -1.49968221	      0.90683836	      0.16863483	     13.70570288	     -3.95941463	      1.64503916	     65.52309486	      4.35038656	      1.14359374	      6.25410962	    -16.81155816	     -9.29723442	     -2.53511214	      8.53638496	    -14.69849261	     22.41984317	     -3.19579949	      0.39130008	     21.39859210	     18.82886250	     -9.29723442	    -23.59088475	     -0.42325291	     -3.37330376	      3.12746193	     -8.86139977	    -18.89062064	     28.65154979	     90.00000001	      0.00000000	      0.00000000	     -1.25236687	     -8.08359463	    -22.59353086	     38.73245530	     90.00000001	      0.00000000	      0.00000000
      0.49000000	      9.64098715	      1.76867621	     -1.27234549	     -1.49277250	      0.90711928	      0.16816539	     14.91547731	     -3.66966416	      1.55354797	     63.98444554	      4.35852113	      1.11673924	      6.59582353	    -16.43016715	     -9.26809906	     -3.02461358	      8.36435391	    -14.29826074	     22.22083788	     -3.27470773	      0.38782678	     21.61834148	     18.78270694	     -9.26809906	    -23.62271045	     -0.02935699	     -3.75796931	      2.86335561	     -8.93913957	    -19.11359233	     28.72337904	     90.00000001	      0.00000000	      0.00000000	     -0.92364436	     -8.24466136	    -22.20915351	     38.80060046	     90.00000001	      0.00000000	      0.00000000
      0.50000000	      9.58851690	      1.49982856	     -0.92237405	     -1.48592425	      0.90748491	      0.16771238	     15.91075357	     -3.38128495	      1.36184454	     62.09431131	      4.39882415	      1.08375018	      6.93375453	    -15.93316338	     -9.23689652	     -3.59126504	      8.12568383	    -13.87160750	     22.01609525	     -3.32383088	      0.38425335	     21.91354732	     18.80978105	     -9.23689652	    -23.71072700	      0.41277921	     -4.14857968	      2.63775363	     -8.98239047	    -19.39312393	     28.81857871	     90.00000001	      0.00000000	      0.00000000	     -0.51387926	     -8.40412225	    -21.72750236	     38.83508729	     90.00000001	      0.00000000	      0.00000000
      0.51000000	      9.83236760	      1.11718059	     -0.47402744	     -1.47867816	      0.90843269	      0.16738423	     16.25096193	     -2.91285220	      0.41291020	     59.59709503	      3.82160379	      1.04016553	      7.25251364	    -14.88009368	     -9.13916176	     -4.61936953	      7.59254861	    -13.57108781	     21.65667474	     -3.16632628	      0.37798028	     22.27981434	     19.37909267	     -9.13916176	    -24.12267237	      0.98149313	     -4.48823057	      2.43549048	     -8.90050121	    -20.42705577	     28.86673443	     90.00000001	      0.00000000	      0.00000000	     -0.14311028	     -8.66007890	    -20.75065389	     38.84748858	     90.00000001	      0.00000000	      0.00000000
